<svg xmlns="http://www.w3.org/2000/svg" viewBox="0 0 1600 1000" preserveAspectRatio="xMidYMid slice">
  <defs>
    <linearGradient id="wall" x1="0" x2="0" y1="0" y2="1">
      <stop offset="0" stop-color="#5f6973"/>
      <stop offset="0.55" stop-color="#30363d"/>
      <stop offset="1" stop-color="#20252a"/>
    </linearGradient>
    <linearGradient id="floor" x1="0" x2="0" y1="0" y2="1">
      <stop offset="0" stop-color="#383f47"/>
      <stop offset="1" stop-color="#20252a"/>
    </linearGradient>
    <filter id="soft" x="-20%" y="-20%" width="140%" height="140%">
      <feGaussianBlur stdDeviation="18"/>
    </filter>
  </defs>

  <rect width="1600" height="1000" fill="#242a30"/>
  <rect width="1600" height="620" fill="url(#wall)"/>
  <polygon points="0,620 1600,620 1600,1000 0,1000" fill="url(#floor)"/>

  <g opacity="0.24" stroke="#c8d1db" stroke-width="2">
    <path d="M0 620H1600"/>
    <path d="M160 620V0"/>
    <path d="M420 620V0"/>
    <path d="M680 620V0"/>
    <path d="M940 620V0"/>
    <path d="M1200 620V0"/>
    <path d="M1460 620V0"/>
    <path d="M0 760H1600"/>
    <path d="M0 885H1600"/>
    <path d="M800 620L145 1000"/>
    <path d="M800 620L1455 1000"/>
    <path d="M520 620L280 1000"/>
    <path d="M1080 620L1320 1000"/>
  </g>

  <g opacity="0.5">
    <rect x="98" y="0" width="42" height="620" fill="#15191d"/>
    <rect x="405" y="0" width="34" height="620" fill="#15191d"/>
    <rect x="784" y="0" width="48" height="620" fill="#15191d"/>
    <rect x="1160" y="0" width="36" height="620" fill="#15191d"/>
    <rect x="1450" y="0" width="42" height="620" fill="#15191d"/>
  </g>

  <g opacity="0.92">
    <rect x="220" y="112" width="280" height="24" rx="12" fill="#f5f8fb"/>
    <rect x="650" y="86" width="320" height="26" rx="13" fill="#ffffff"/>
    <rect x="1110" y="128" width="270" height="22" rx="11" fill="#f2f5f8"/>
  </g>

  <g opacity="0.22" filter="url(#soft)">
    <ellipse cx="360" cy="166" rx="250" ry="130" fill="#ffffff"/>
    <ellipse cx="810" cy="143" rx="300" ry="150" fill="#ffffff"/>
    <ellipse cx="1240" cy="178" rx="240" ry="120" fill="#ffffff"/>
  </g>

  <g opacity="0.22" fill="#11151a">
    <rect x="70" y="478" width="240" height="142"/>
    <rect x="1280" y="450" width="230" height="170"/>
    <rect x="1030" y="520" width="110" height="100"/>
  </g>

  <rect width="1600" height="1000" fill="none" stroke="#11161b" stroke-width="32" opacity="0.45"/>
</svg>
